<svg xmlns="http://www.w3.org/2000/svg" width="622.266" height="345.6" viewBox="0 0 622.266 345.6">
  <g id="icon" transform="translate(-640.545 -104.426)">
    <path id="Unión_1" data-name="Unión 1" d="M201.822,318.73c-29.877-13.555-55.337-27.111-77.353-26.862-44.215.494-78.614,44.328-104.817,28.5s-26.2-57.092,0-91.815,48.54-52.707,107.676-54.2c29.733-.751,51.652,16.33,77.794,33.414,25.846,16.888,55.823,33.78,101.564,33.435,92-.695,121.685-67.335,183.852-66.849s79.119,19.47,109.181,54.2,30.062,75.988,0,91.815c-17.145,9.026-39.947-1.771-64.3-12.572-18.353-8.139-37.59-16.278-55.944-15.924-42.706.815-92.892,52.768-172.786,53.719q-1.025.012-2.045.012C265.392,345.6,231.435,332.165,201.822,318.73Zm0-174.324c-29.877-13.555-55.341-27.115-77.357-26.866-44.215.494-78.614,44.328-104.817,28.5s-26.2-57.088,0-91.815,48.54-52.7,107.676-54.2c29.733-.751,51.652,16.334,77.794,33.414,25.846,16.892,55.823,33.784,101.564,33.439,92-.7,121.685-67.339,183.852-66.853s79.119,19.47,109.181,54.2,30.062,75.988,0,91.815c-17.145,9.026-39.947-1.771-64.3-12.572-18.353-8.139-37.59-16.278-55.944-15.924-42.706.815-92.892,52.768-172.786,53.723-.676.008-1.356.012-2.029.012C265.4,171.277,231.444,157.844,201.826,144.406Z" transform="translate(640.545 104.426)" fill="#6b5ee7"/>
  </g>
</svg>
