<svg width="342" height="366" viewBox="0 0 342 366" fill="none" xmlns="http://www.w3.org/2000/svg">
<path d="M123.188 136V155.5C123.188 158.261 120.949 160.5 118.187 160.5H92.1875C89.4261 160.5 87.1875 158.261 87.1875 155.5V136" stroke="black" stroke-width="12"/>
<path d="M260.188 133V152.5C260.188 155.261 257.949 157.5 255.187 157.5H229.188C226.426 157.5 224.188 155.261 224.188 152.5V133" stroke="black" stroke-width="12"/>
<path d="M117.188 162L125.392 188.665C126.494 192.247 125.501 196.146 122.817 198.763L113.848 207.515C109.894 211.372 103.561 211.293 99.7043 207.338L91.0654 198.477C88.6537 196.004 87.6895 192.461 88.5152 189.106L95.1875 162" stroke="black" stroke-width="12"/>
<path d="M254.188 158L262.392 184.665C263.494 188.247 262.501 192.146 259.817 194.763L250.848 203.515C246.894 207.372 240.561 207.293 236.704 203.338L228.065 194.477C225.654 192.004 224.689 188.461 225.515 185.106L232.188 158" stroke="black" stroke-width="12"/>
<path d="M231.695 132.5V97C231.695 97 231.695 32 173.695 32C114.188 32 117.695 97 117.695 97V132.5" stroke="black" stroke-width="12"/>
<path d="M252.141 134.5V88.5522C252.141 88.5522 243.688 6 171.177 6C96.6875 6 93.1953 88.5522 93.1953 88.5522L93.1953 134.5" stroke="black" stroke-width="12"/>
<path d="M41.9511 135H301.386C303.859 135 305.961 136.808 306.33 139.253L335.345 331.265C337.631 346.388 325.921 360 310.626 360H31.0055C15.6227 360 3.88913 346.24 6.31946 331.05L37.0139 139.21C37.402 136.784 39.4946 135 41.9511 135Z" stroke="black" stroke-width="12"/>
</svg>
