<svg width="321" height="383" viewBox="0 0 321 383" fill="none" xmlns="http://www.w3.org/2000/svg">
<path d="M145.5 117.777V376.777" stroke="#2D1A1C" stroke-width="12" stroke-linecap="round"/>
<path d="M238 15.2773L164.529 102.462C163.73 103.411 162.27 103.411 161.471 102.462L88 15.2773" stroke="#2D1A1C" stroke-width="12" stroke-linecap="round"/>
<path d="M260.497 51.7778C261.198 59.1393 239.934 107.999 225.242 140.272C222.427 146.456 214.39 148.032 209.413 143.408L169.937 106.723C166.046 103.108 160.008 103.165 156.186 106.853L115.981 145.647C111.07 150.385 102.972 148.934 100.087 142.749C86.3567 113.317 66.1067 67.6723 62.9969 51.7778C58.4969 28.7782 88.4969 7.77778 94.9969 7.77778C101.497 7.77778 212.497 3.77778 230.997 7.77778C249.497 11.7778 259.497 41.2778 260.497 51.7778Z" stroke="#2D1A1C" stroke-width="12" stroke-linecap="round"/>
<path d="M260 48.2773L300.874 74.9017C309.374 80.4382 314.5 89.8952 314.5 100.039V361.777C314.5 370.062 307.784 376.777 299.5 376.777H21C12.7157 376.777 6 370.062 6 361.777V100.436C6 90.0752 11.3458 80.4479 20.1402 74.9707L63 48.2773" stroke="#2D1A1C" stroke-width="12" stroke-linecap="round"/>
<circle cx="165" cy="163.777" r="8.5" fill="#2D1A1C"/>
<circle cx="165" cy="226.777" r="8.5" fill="#2D1A1C"/>
<circle cx="165" cy="280.777" r="8.5" fill="#2D1A1C"/>
<circle cx="165" cy="328.777" r="8.5" fill="#2D1A1C"/>
</svg>
