<svg width="305" height="396" viewBox="0 0 305 396" fill="none" xmlns="http://www.w3.org/2000/svg">
<path d="M151.609 59.8828L121.609 105.383" stroke="#2D1A1C" stroke-width="12" stroke-linecap="round"/>
<path d="M214.609 6.88281C203.109 25.0495 172.209 59.4828 150.609 57.8828C129.009 56.2828 103.276 24.7161 94.1094 6.88281" stroke="#2D1A1C" stroke-width="12" stroke-linecap="round"/>
<path d="M148.609 347.383L105.109 386.883L11.6094 347.383C14.1094 328.049 18.8094 283.583 17.6094 260.383C16.4094 237.183 9.77604 195.383 6.60938 177.383C18.776 169.716 43.3094 150.483 44.1094 134.883C44.9094 119.283 39.1094 60.0495 36.1094 32.3828L91.8069 6.20022C93.1211 5.58241 94.6357 6.52613 94.6672 7.97799C95.3907 41.3544 99.9305 108.014 113.109 130.883C126.709 154.483 142.443 174.049 148.609 180.883" stroke="#2D1A1C" stroke-width="12" stroke-linecap="round"/>
<path d="M267.109 29.3828L215.855 6.4405C215.238 6.16429 214.533 6.54635 214.454 7.21778C211.652 31.0522 204.029 83.2303 194.609 111.883C185.009 141.083 151.943 184.383 136.609 202.383L140.109 337.883L194.609 388.883L294.109 350.883C292.609 340.716 289.309 311.683 288.109 276.883C286.909 242.083 293.943 195.049 297.609 175.883C290.276 170.549 273.909 157.183 267.109 146.383C260.309 135.583 264.276 63.8828 267.109 29.3828Z" stroke="#2D1A1C" stroke-width="12" stroke-linecap="round"/>
<path d="M151.109 60.3828L178.109 97.3828" stroke="#2D1A1C" stroke-width="12" stroke-linecap="round"/>
<path d="M43.1094 274.883H95.1094" stroke="#2D1A1C" stroke-width="12" stroke-linecap="round"/>
<path d="M211.109 274.883H263.109" stroke="#2D1A1C" stroke-width="12" stroke-linecap="round"/>
<circle cx="159.609" cy="216.383" r="10" fill="#2D1A1C" stroke="#2D1A1C"/>
<circle cx="159.609" cy="264.383" r="10" fill="#2D1A1C" stroke="#2D1A1C"/>
<circle cx="159.609" cy="318.383" r="10" fill="#2D1A1C" stroke="#2D1A1C"/>
</svg>
