<svg width="336" height="350" viewBox="0 0 336 350" fill="none" xmlns="http://www.w3.org/2000/svg">
<path d="M171.5 6C262.49 6 329.912 80.0838 329.998 172.324C329.589 178.875 328.005 183.293 325.911 186.324C323.833 189.333 320.955 191.41 317.188 192.794C309.241 195.712 298.074 195.315 284.905 193.715C272.391 192.194 257.941 189.55 245.812 189.207C233.831 188.869 221.139 190.587 213.719 200.375L213.46 200.716L213.253 201.09C209.59 207.694 211.251 215.015 214.146 221.283C217.102 227.682 222.049 234.545 227.529 241.412C238.888 255.644 252.658 270.182 262.085 284.778C271.661 299.606 274.314 310.892 268.407 319.444C265.238 324.033 259.084 328.785 247.983 332.992C236.942 337.177 221.501 340.633 200.452 342.979C156.693 346.294 107.992 326.825 70.0791 294.512C32.1408 262.177 6 217.848 6 172.5C6 80.5117 80.1297 6 171.5 6Z" stroke="#290202" stroke-width="12"/>
<circle cx="197.5" cy="286.453" r="23.5" stroke="#290202" stroke-width="12"/>
<circle cx="77.5" cy="209.453" r="23.5" stroke="#290202" stroke-width="12"/>
<circle cx="84.5" cy="117.453" r="23.5" stroke="#290202" stroke-width="12"/>
<circle cx="162.5" cy="73.4551" r="23.5" stroke="#290202" stroke-width="12"/>
<circle cx="247.5" cy="117.453" r="23.5" stroke="#290202" stroke-width="12"/>
</svg>
