<svg width="192" height="401" viewBox="0 0 192 401" fill="none" xmlns="http://www.w3.org/2000/svg">
<path d="M152.57 34.5C152.904 39.5 155.47 51.7 163.07 60.5C170.67 69.3 179.237 73.1667 182.57 74" stroke="#2D1A1C" stroke-width="12"/>
<path d="M47.0703 32.5C46.6814 38.3228 43.687 52.5304 34.8203 62.7785C25.9536 73.0266 15.9592 77.5295 12.0703 78.5" stroke="#2D1A1C" stroke-width="12"/>
<path d="M97.5703 127V101H87.0703V36" stroke="#2D1A1C" stroke-width="12" stroke-linecap="round"/>
<path d="M96.5703 101H108.07V36" stroke="#2D1A1C" stroke-width="12" stroke-linecap="round"/>
<path d="M182.07 32.5H11.5703" stroke="#2D1A1C" stroke-width="12" stroke-linecap="round"/>
<path d="M129.07 394.5L97.5703 126.5L70.0703 394.5H6.07031C7.40365 277 10.1703 40.4 10.5703 34C10.9703 27.6 14.0703 12.6667 15.5703 6H180.07C181.57 8.33333 185.07 17.2 185.07 34C185.07 50.8 184.57 281.333 184.57 394.5H129.07Z" stroke="#2D1A1C" stroke-width="12" stroke-linecap="round"/>
</svg>
