<svg width="252" height="395" viewBox="0 0 252 395" fill="none" xmlns="http://www.w3.org/2000/svg">
<path d="M82.3224 169.112L123 212L176.887 160.763C177.76 159.933 176.691 158.553 175.669 159.19L123 192L83.5746 167.573C82.5783 166.956 81.5158 168.261 82.3224 169.112Z" fill="#2B1B19"/>
<path d="M124.5 102.5V118.5" stroke="#2B1B19" stroke-width="12" stroke-linecap="round"/>
<path d="M125 274V290" stroke="#2B1B19" stroke-width="12" stroke-linecap="round"/>
<path d="M188.5 326C193.833 323.333 204.214 320 205.5 311C206.571 303.5 206.833 294.667 207 290" stroke="#2B1B19" stroke-width="12" stroke-linecap="round"/>
<path d="M62.5 324C57.1667 321.333 46.7857 318 45.5 309C44.4286 301.5 44.1667 295.167 44 290.5" stroke="#2B1B19" stroke-width="12" stroke-linecap="round"/>
<path d="M187.5 305L180.5 388.5H70L65.5 305" stroke="#2B1B19" stroke-width="12" stroke-linecap="round"/>
<path d="M188.5 68.5C193.833 71.1667 204.214 74.5 205.5 83.5C206.571 91 206.833 99.8333 207 104.5" stroke="#2B1B19" stroke-width="12" stroke-linecap="round"/>
<path d="M62.5 70.5C57.1667 73.1667 46.7857 76.5 45.5 85.5C44.4286 93 44.1667 101.833 44 106.5" stroke="#2B1B19" stroke-width="12" stroke-linecap="round"/>
<path d="M187.5 89.5L180.5 6H70L65.5 91" stroke="#2B1B19" stroke-width="12" stroke-linecap="round"/>
<circle cx="126" cy="198" r="120" stroke="#2B1B19" stroke-width="12"/>
<circle cx="125.5" cy="197.5" r="94.5" stroke="#2B1B19" stroke-width="12"/>
</svg>
