<svg width="400" height="467" viewBox="0 0 400 467" fill="none" xmlns="http://www.w3.org/2000/svg">
<path d="M202.352 78.5V59C209.685 55.1667 223.852 44.6069 223.852 33C223.852 17.998 216.36 6.00166 200.852 6C185.352 5.99834 176.352 14 176.352 33" stroke="#2D1A1C" stroke-width="12" stroke-linecap="round"/>
<path d="M241.852 97.998C231.352 91.1647 214.852 80.498 199.352 80.498C180.352 80.498 164.352 91.8314 152.352 97.998" stroke="#2D1A1C" stroke-width="12" stroke-linecap="round"/>
<path d="M163.352 192.498C167.352 218.098 188.685 305.165 198.852 345.498L118.574 188.287C116.409 184.047 117.533 178.869 121.261 175.908L121.746 175.523C126.864 171.459 126.772 163.657 121.558 159.715L118.852 157.669C114.637 154.482 113.629 148.566 116.55 144.163L144.12 102.615C145.114 101.117 147.421 101.575 147.747 103.342C151.904 125.896 159.638 168.733 163.352 192.498Z" stroke="#2D1A1C" stroke-width="12"/>
<path d="M192.852 131.498L171.852 150.998" stroke="#2D1A1C" stroke-width="12" stroke-linecap="round"/>
<path d="M209.242 130.497L227.834 152.306" stroke="#2D1A1C" stroke-width="12" stroke-linecap="round"/>
<path d="M319.852 235.498L337.352 429.998L392.352 427.498L353.077 152.577C352.622 149.388 350.659 146.615 347.803 145.125L253.087 95.708C250.717 94.4715 247.804 95.3183 246.321 97.5417C237.681 110.489 219.643 130.218 199.852 129.498C179.93 128.774 160.418 109.408 150.969 97.0931C149.425 95.0808 146.659 94.3886 144.415 95.5699L48.4275 146.09C45.5574 147.6 43.5981 150.409 43.1718 153.624L6.85156 427.498H58.8516L81.3516 298.998V235.498V460.498C81.3516 460.498 116.352 460.498 151.852 460.498C169.852 460.498 177.671 451.487 182.852 444.498C190.263 434.498 195.352 422.498 195.352 422.498" stroke="#2D1A1C" stroke-width="12"/>
<path d="M319.949 236.998C319.949 239.398 319.949 385.665 319.949 458.498C319.949 458.498 272.475 458.498 236.352 458.498C226.255 458.498 209.135 445.641 201.449 433.998C190.255 417.043 189.305 401.998 189.329 393.498C189.352 384.998 191.593 377.998 191.593 377.998M191.593 377.998L213.949 331.498L281.398 190.899C283.462 186.597 282.199 181.436 278.382 178.573L277.687 178.052C272.332 174.036 272.358 165.995 277.739 162.013L283.915 157.443C288.352 154.159 289.289 147.9 286.008 143.461L252.382 97.9669C251.314 96.5221 249.031 97.0938 248.789 98.874C242.447 145.415 228.713 237.459 219.449 269.498C209.849 302.698 196.878 355.665 191.593 377.998Z" stroke="#2D1A1C" stroke-width="12"/>
<circle cx="209.852" cy="386.998" r="8" fill="#2D1A1C" stroke="#2D1A1C"/>
</svg>
