<svg width="1244" height="286" viewBox="0 0 1244 286" fill="none" xmlns="http://www.w3.org/2000/svg">
<path d="M64.6328 146.547L57.4066 154.623C56.5863 155.54 56.1328 156.727 56.1328 157.957V261.547C56.1328 264.308 53.8942 266.547 51.1328 266.547H36.0629C33.3289 266.547 31.1027 264.376 31.0581 261.642C30.453 224.555 28.4569 155.226 24.6328 139.547C19.6328 119.047 11.1328 110.047 11.1328 107.047" stroke="black" stroke-width="8"/>
<path d="M125.63 96.0469C99.4819 61.3074 70.427 24.7366 56.7892 7.83465C55.2539 5.93192 52.5748 5.42468 50.5081 6.73095C42.0655 12.0672 27.9189 22.5056 18.6299 34.5469C5.12991 52.0469 3.62991 86.0469 8.62991 101.047C13.6299 116.047 12.1299 109.047 69.1299 147.047C126.13 185.047 102.63 252.047 158.13 272.547C213.63 293.047 333.63 264.547 337.63 259.547C341.63 254.547 339.63 249.047 337.63 242.547C336.064 237.459 283.635 213.13 255.927 200.842C254.762 200.326 253.467 200.29 252.251 200.668C242.739 203.632 222.672 207.399 205.13 202.547C181.63 196.047 160.63 142.547 125.63 96.0469Z" stroke="black" stroke-width="12"/>
<path d="M1060.1 102.121L1046.91 117.887C1044.18 121.159 1039.31 121.597 1036.03 118.867C1032.7 116.091 1032.3 111.119 1035.15 107.849L1048.64 92.3448C1051.32 89.2645 1055.97 88.8821 1059.12 91.483C1062.34 94.1433 1062.78 98.9165 1060.1 102.121Z" stroke="black" stroke-width="12"/>
<path d="M1084.1 121.121L1070.91 136.887C1068.18 140.159 1063.31 140.597 1060.03 137.867C1056.7 135.091 1056.3 130.119 1059.15 126.849L1072.64 111.345C1075.32 108.264 1079.97 107.882 1083.12 110.483C1086.34 113.143 1086.78 117.916 1084.1 121.121Z" stroke="black" stroke-width="12"/>
<path d="M1107.1 139.121L1093.91 154.887C1091.18 158.159 1086.31 158.597 1083.03 155.867C1079.7 153.091 1079.3 148.119 1082.15 144.849L1095.64 129.345C1098.32 126.264 1102.97 125.882 1106.12 128.483C1109.34 131.143 1109.78 135.916 1107.1 139.121Z" stroke="black" stroke-width="12"/>
<path d="M1131.1 157.121L1117.91 172.887C1115.18 176.159 1110.31 176.597 1107.03 173.867C1103.7 171.091 1103.3 166.119 1106.15 162.849L1119.64 147.345C1122.32 144.264 1126.97 143.882 1130.12 146.483C1133.34 149.143 1133.78 153.916 1131.1 157.121Z" stroke="black" stroke-width="12"/>
<path d="M1113.46 138.307C1083.96 113.474 1023.46 63.507 1017.46 62.307C1009.96 60.807 1004.96 61.307 1000.96 65.807C996.961 70.307 988.461 76.3086 988.461 84.8086C988.461 91.6086 991.128 104.975 992.461 110.809" stroke="black" stroke-width="12"/>
<path d="M986.461 91.8086C979.961 95.8086 964.161 103.709 952.961 103.309C941.761 102.909 929.961 95.4753 925.461 91.8086" stroke="black" stroke-width="12"/>
<path d="M877.458 193.309C876.458 205.809 875.058 233.109 877.458 242.309C880.458 253.809 889.461 257.809 909.461 259.309C929.461 260.809 999.461 260.809 1019.96 262.309C1040.46 263.809 1082.46 262.309 1096.46 262.309C1110.46 262.309 1132.96 260.809 1149.46 259.309C1165.96 257.809 1192.46 250.309 1204.46 244.309C1216.46 238.309 1228.96 229.309 1233.46 222.809C1237.06 217.609 1237.63 204.309 1237.46 198.309" stroke="black" stroke-width="12"/>
<path d="M883.461 130.309C896.461 134.309 925.661 145.809 938.461 159.809C951.261 173.809 962.794 197.642 966.961 207.809" stroke="black" stroke-width="12"/>
<path d="M883.961 93.8086C883.961 80.2086 898.954 75.81 905.961 75.8086C913.961 75.807 922.461 82.2086 924.461 87.8086C926.961 94.8086 924.461 99.3086 929.461 110.309C934.461 121.309 939.461 124.809 954.961 124.809C970.461 124.809 982.961 117.809 1001.96 105.309C1020.96 92.8086 1032.46 97.8086 1042.96 97.8086C1053.46 97.8086 1080.46 117.809 1090.96 125.309C1101.46 132.809 1134.96 151.309 1146.46 158.309C1157.96 165.309 1212.46 171.309 1223.46 175.809C1234.46 180.309 1238.46 193.809 1235.96 200.309C1233.46 206.809 1229.46 207.309 1203.46 215.809C1177.46 224.309 1117.46 225.809 1091.96 225.809C1066.46 225.809 1031.96 216.809 1006.46 212.809C980.961 208.809 921.461 205.309 901.961 204.809C887.732 204.444 880.741 198.227 878.484 194.355C878.095 193.689 877.989 192.93 878.044 192.16C880.07 164.215 883.961 107.222 883.961 93.8086Z" stroke="black" stroke-width="12"/>
<path d="M1060.52 261.272C1054.52 251.605 1041.46 236.307 1004.96 236.309C987.418 236.309 981.696 252.606 983.029 259.773" stroke="black" stroke-width="12"/>
<path d="M615.133 91.5469L675.185 155.662C678.805 159.528 678.784 165.546 675.136 169.386L615.133 232.547" stroke="black" stroke-width="20" stroke-linecap="round"/>
<path d="M491.08 153.047C485.557 153.076 481.104 157.577 481.133 163.1C481.162 168.622 485.663 173.076 491.186 173.047L491.133 163.047L491.08 153.047ZM491.133 163.047L491.186 173.047L678.686 172.057L678.633 162.057L678.58 152.058L491.08 153.047L491.133 163.047Z" fill="black"/>
</svg>
