<svg width="314" height="414" viewBox="0 0 314 414" fill="none" xmlns="http://www.w3.org/2000/svg">
<path d="M157.02 222.15L161.42 399.25H149.32L157.02 222.15Z" fill="black"/>
<path d="M212.135 57.1558C213.602 42.8558 215.094 8.53676 209.814 7.65676C203.214 6.55676 201.014 24.1449 201.014 31.3004C201.014 36.2449 201.014 45.6068 201.014 50.5568M306.064 359.106C283.331 311.99 234.124 212.476 219.164 191.356C204.204 170.236 197.898 160.556 196.614 158.356C196.431 150.473 197.714 130.636 204.314 114.356C212.564 94.0062 220.226 61.1475 209.814 54.9568C189.464 42.8568 172.414 59.3568 158.115 68.7062C141.065 58.0727 105.425 40.8758 99.2652 57.1558C91.5652 77.5058 103.115 103.357 105.315 118.757C107.515 134.157 112.464 153.957 110.814 160.557C109.164 167.157 92.6641 188.607 84.4141 203.457C77.8141 215.337 30.3307 312.173 7.41406 359.106C12.9141 363.873 25.6741 374.067 32.7141 376.707C39.7541 379.347 56.9141 381.84 64.6141 382.757C72.8648 389.723 92.5562 403.767 105.315 404.207C118.074 404.647 145.832 401.823 158.115 400.357C167.098 403.473 189.354 409.157 206.514 406.957C223.674 404.757 240.797 393.207 247.214 387.707C254.914 386.607 273.174 382.867 284.614 376.707C296.054 370.547 303.681 362.406 306.064 359.106Z" stroke="black" stroke-width="12"/>
<path d="M99.2677 56.6C97.8011 42.6667 96.501 6 102.548 6C109.695 6 110.234 13.1492 110.234 29.6492C110.234 42.8492 110.234 48.716 110.234 49.9994" stroke="black" stroke-width="12"/>
<path d="M196.62 159.451H113.57" stroke="black" stroke-width="12"/>
<path d="M107.517 255.151C102.928 257.446 75.6172 341.5 61.8672 381.1L70.1172 383.852C84.7839 339.485 111.917 252.95 107.517 255.151Z" fill="black"/>
<path d="M205.425 259.869C203.115 264.451 231.844 349.376 244.466 389.35L252.292 385.433C237.559 341.088 207.64 255.476 205.425 259.869Z" fill="black"/>
</svg>
