<svg width="328" height="318" viewBox="0 0 328 318" fill="none" xmlns="http://www.w3.org/2000/svg">
<path d="M6.18416 79.1914C6.58416 59.1914 38.3508 22.8581 54.1842 7.19141C58.5186 9.19141 69.8875 16.3914 80.6875 29.1914C94.1875 45.1914 125.688 103.691 138.688 125.691C151.688 147.691 194.188 222.191 205.688 226.691C217.188 231.191 234.188 225.691 241.688 228.191C249.188 230.691 282.188 255.191 303.188 268.691C324.188 282.191 322.188 286.691 321.688 291.191C321.188 295.691 315.188 301.691 295.188 305.691C275.188 309.691 166.188 311.691 147.688 311.691C131.188 311.691 114.188 287.691 107.688 269.191C101.188 250.691 79.6875 185.191 71.1875 173.691C62.6875 162.191 20.6842 127.691 13.1842 120.191C5.68416 112.691 5.68416 104.191 6.18416 79.1914Z" stroke="black" stroke-width="12"/>
<path d="M240.188 229.191C234.854 236.191 220.587 250.391 206.188 251.191C188.188 252.191 166.188 251.191 151.688 229.191C137.188 207.191 110.188 127.191 101.188 107.691C92.1875 88.1914 61.1875 35.6914 59.1875 28.1914C57.5875 22.1914 55.5208 12.0247 54.6875 7.69141" stroke="black" stroke-width="12"/>
<path d="M56.6875 161.691L50.1875 173.191V293.191H27.6875C27.3542 255.858 26.1875 178.691 24.1875 168.691C22.1875 158.691 12.8542 126.691 9.1875 114.691" stroke="black" stroke-width="12"/>
</svg>
