<svg width="359" height="182" viewBox="0 0 359 182" fill="none" xmlns="http://www.w3.org/2000/svg">
<path d="M97.5 121.773C98.8333 117.107 100.2 105.273 95 95.2734C89.8 85.2734 81.8333 76.7734 78.5 73.7734" stroke="#2B1B19" stroke-width="12" stroke-linecap="round"/>
<path d="M107 140.5C126.5 152.167 181 176.073 225 175.273C268.112 174.49 325.466 163.779 351.436 158.33C352.361 158.136 353 157.324 353 156.379V143.273" stroke="#2B1B19" stroke-width="12"/>
<path d="M6 97.7752C6 106.975 13.3333 118.275 17 122.775L109 123.773C131.333 134.607 185 156.773 221 158.773C257 160.773 324 149.273 353 143.273C353 141.607 352.5 136.973 350.5 131.773C348 125.273 336 103.773 304.5 98.7734C273 93.7734 254.5 87.2734 242.5 80.2734C230.5 73.2734 168.5 7.27516 165 6.27516C162.2 5.47516 157.833 6.60849 156 7.27516C144 16.2752 108.5 45.7752 82 44.7752C55.5 43.7752 26 20.2752 23.5 20.2752C21 20.2752 17 21.7752 14.5 25.7752C12 29.7752 6 86.2752 6 97.7752Z" stroke="#2B1B19" stroke-width="12"/>
<path d="M9.5 165.773V125.773H107V165.773H9.5Z" stroke="#2B1B19" stroke-width="12"/>
<path d="M175 20.7734L155.5 39.2734" stroke="#2B1B19" stroke-width="12" stroke-linecap="round"/>
<path d="M199.5 43.7734L180 62.2734" stroke="#2B1B19" stroke-width="12" stroke-linecap="round"/>
<path d="M212.5 56.7734L193 75.2734" stroke="#2B1B19" stroke-width="12" stroke-linecap="round"/>
<path d="M225.5 70.7734L206 89.2734" stroke="#2B1B19" stroke-width="12" stroke-linecap="round"/>
<path d="M189.5 30.7734L170 49.2734" stroke="#2B1B19" stroke-width="12" stroke-linecap="round"/>
</svg>
