<svg width="38" height="23" viewBox="0 0 38 23" fill="none" xmlns="http://www.w3.org/2000/svg">
<path d="M12.1954 20.8594C10.3898 19.9722 8.8514 19.0833 7.521 19.1015C4.8494 19.134 2.7706 22.004 1.1874 20.9643C-0.3958 19.9246 -0.3958 17.2283 1.1874 14.9557C2.7706 12.6832 4.1202 11.5105 7.6942 11.4117C9.491 11.3623 10.8142 12.4804 12.3946 13.5981C13.9546 14.7036 15.7678 15.8074 18.5314 15.7862C24.0914 15.7407 25.8842 11.3797 29.6406 11.4108C33.397 11.442 34.4214 12.6845 36.2378 14.957C38.0542 17.2296 38.0542 19.9298 36.2378 20.9656C35.2018 21.556 33.8238 20.8495 32.3522 20.1425C31.2434 19.6114 30.0802 19.0785 28.9722 19.1015C26.3918 19.1548 23.359 22.5546 18.5322 22.6169H18.409C16.0366 22.6178 13.985 21.7388 12.1954 20.8594ZM12.1954 9.45147C10.3898 8.56427 8.8514 7.67534 7.521 7.69353C4.8494 7.72602 2.7706 10.596 1.1874 9.55631C-0.3958 8.51662 -0.3958 5.82036 1.1874 3.54778C2.7706 1.2752 4.1202 0.0990487 7.6938 0.00157799C9.4906 -0.0478072 10.8138 1.07029 12.3942 2.18795C13.9542 3.29349 15.7674 4.39729 18.531 4.37606C24.091 4.33058 25.8838 -0.0304794 29.6402 0.000711238C33.3966 0.0319019 34.421 1.27433 36.2374 3.54691C38.0538 5.81949 38.0538 8.51965 36.2374 9.55544C35.2014 10.1459 33.8234 9.43934 32.3518 8.73235C31.2426 8.19995 30.0802 7.66711 28.9714 7.69007C26.391 7.74335 23.3582 11.1431 18.5314 11.2055H18.4082C16.0366 11.2098 13.985 10.3309 12.1954 9.45147Z" fill="#35ADE1"/>
</svg>
