<svg width="201" height="295" viewBox="0 0 201 295" fill="none" xmlns="http://www.w3.org/2000/svg">
<path d="M13.008 261.128C10.1707 261.128 8.11733 260.68 6.848 259.784C5.57867 258.888 4.832 257.917 4.608 256.872C4.30933 255.827 4.16 255.043 4.16 254.52C4.23467 253.549 4.68267 252.765 5.504 252.168C6.25067 251.571 7.10933 251.272 8.08 251.272C8.67733 251.272 9.2 251.421 9.648 251.72C10.096 251.944 10.32 252.467 10.32 253.288C10.32 254.035 10.0587 254.557 9.536 254.856C9.01333 255.155 8.45333 255.304 7.856 255.304C7.33333 255.304 6.88533 255.229 6.512 255.08C6.064 254.931 5.84 254.856 5.84 254.856C5.84 256.872 6.58667 258.216 8.08 258.888C9.57333 259.56 11.2533 259.896 13.12 259.896C16.032 259.896 19.0187 259.075 22.08 257.432C25.216 255.789 28.4267 253.624 31.712 250.936C34.9973 248.173 38.3573 245.112 41.792 241.752C45.3013 238.317 48.8853 234.883 52.544 231.448C56.5013 227.715 60.4213 224.019 64.304 220.36C68.2613 216.627 72.0693 213.267 75.728 210.28C79.3867 207.293 82.784 204.904 85.92 203.112C89.056 201.32 91.856 200.424 94.32 200.424C95.1413 200.424 95.4773 200.573 95.328 200.872C95.2533 201.171 94.656 201.395 93.536 201.544C90.9227 201.992 88.048 203.187 84.912 205.128C81.8507 206.995 78.6027 209.421 75.168 212.408C71.7333 215.32 68.1867 218.531 64.528 222.04C60.944 225.475 57.2853 228.947 53.552 232.456C50.1173 235.741 46.6453 239.064 43.136 242.424C39.7013 245.784 36.2667 248.883 32.832 251.72C29.472 254.557 26.112 256.835 22.752 258.552C19.4667 260.269 16.2187 261.128 13.008 261.128ZM47.504 256.088C47.056 256.237 46.5333 256.349 45.936 256.424C45.4133 256.424 45.264 256.237 45.488 255.864C45.712 255.491 46.1227 254.856 46.72 253.96C47.392 252.989 47.9893 251.832 48.512 250.488C49.1093 249.144 49.408 247.763 49.408 246.344C49.408 244.477 49.072 242.349 48.4 239.96C47.8027 237.496 46.7947 235.107 45.376 232.792C44.032 230.477 42.2027 228.573 39.888 227.08C37.648 225.512 34.8853 224.728 31.6 224.728C29.4347 224.728 27.568 225.251 26 226.296C24.5067 227.341 23.3493 228.611 22.528 230.104C21.7813 231.523 21.408 232.904 21.408 234.248C21.408 237.16 22.2667 239.923 23.984 242.536C25.776 245.149 28.464 247.277 32.048 248.92C35.632 250.488 40.0747 251.272 45.376 251.272C51.2 251.272 56.4267 250.264 61.056 248.248C65.6853 246.232 69.568 243.619 72.704 240.408C75.84 237.197 78.0427 233.837 79.312 230.328C79.6853 229.208 79.984 228.835 80.208 229.208C80.5067 229.507 80.656 229.805 80.656 230.104C80.656 232.643 79.7973 235.219 78.08 237.832C76.3627 240.445 73.936 242.872 70.8 245.112C67.664 247.277 64.0427 249.032 59.936 250.376C55.8293 251.72 51.3493 252.392 46.496 252.392C41.4933 252.392 36.864 251.683 32.608 250.264C28.4267 248.845 25.0293 246.755 22.416 243.992C19.8773 241.229 18.608 237.907 18.608 234.024C18.608 231.411 19.6907 229.021 21.856 226.856C24.096 224.616 27.344 223.496 31.6 223.496C35.184 223.496 38.1707 224.317 40.56 225.96C43.024 227.603 45.0027 229.619 46.496 232.008C47.9893 234.397 49.072 236.787 49.744 239.176C50.416 241.565 50.752 243.544 50.752 245.112C50.752 246.829 50.528 248.547 50.08 250.264C49.632 251.907 49.1467 253.288 48.624 254.408C48.176 255.453 47.8027 256.013 47.504 256.088ZM40.896 260.904C40.9707 260.829 41.7173 259.933 43.136 258.216C44.5547 256.499 46.4213 254.221 48.736 251.384C51.0507 248.547 53.664 245.373 56.576 241.864C59.488 238.28 62.512 234.621 65.648 230.888C68.784 227.155 71.8453 223.533 74.832 220.024C77.8933 216.44 80.6933 213.229 83.232 210.392C85.8453 207.48 88.0107 205.165 89.728 203.448C91.52 201.731 92.6773 200.835 93.2 200.76C93.5733 200.611 93.9093 200.611 94.208 200.76C94.5067 200.909 94.432 201.171 93.984 201.544C93.6853 201.768 92.64 203 90.848 205.24C89.056 207.405 86.7787 210.28 84.016 213.864C81.328 217.373 78.3787 221.256 75.168 225.512C72.032 229.693 68.896 233.875 65.76 238.056C62.624 242.163 59.7493 245.971 57.136 249.48C54.5973 252.915 52.5067 255.677 50.864 257.768C49.296 259.859 48.4747 260.904 48.4 260.904C48.1013 260.829 47.5787 260.755 46.832 260.68C46.16 260.605 45.488 260.568 44.816 260.568C44.144 260.568 43.36 260.605 42.464 260.68C41.6427 260.829 41.12 260.904 40.896 260.904ZM115.434 191.128C116.255 191.277 117.263 191.352 118.458 191.352C119.727 191.352 120.735 191.277 121.482 191.128L82.5058 245.448C81.3111 247.24 80.1538 248.92 79.0337 250.488C77.9137 252.056 77.0177 253.437 76.3457 254.632C75.5991 255.752 75.2257 256.648 75.2257 257.32C75.2257 257.843 75.4497 258.216 75.8978 258.44C76.2711 258.664 76.8311 258.776 77.5777 258.776C79.2951 258.776 81.1991 258.179 83.2897 256.984C85.3804 255.715 87.4338 254.147 89.4498 252.28C91.5404 250.413 93.4444 248.584 95.1618 246.792C96.9538 245 98.3724 243.544 99.4178 242.424L100.202 243.096C99.2311 244.141 97.8871 245.597 96.1698 247.464C94.4524 249.331 92.4738 251.235 90.2338 253.176C88.0684 255.043 85.7911 256.648 83.4018 257.992C81.0871 259.336 78.8097 260.008 76.5697 260.008C75.3751 260.008 74.3671 259.672 73.5457 259C72.6497 258.328 72.2018 257.357 72.2018 256.088C72.2018 255.267 72.5004 254.221 73.0977 252.952C73.6951 251.683 74.4417 250.376 75.3377 249.032C76.1591 247.613 76.9804 246.344 77.8017 245.224C78.5484 244.029 79.1457 243.133 79.5938 242.536L115.434 191.128ZM123.697 239.4C123.399 239.997 122.951 240.52 122.353 240.968C121.831 241.416 121.42 241.715 121.121 241.864C120.897 241.939 120.972 241.715 121.345 241.192C122.689 239.549 123.548 238.019 123.921 236.6C124.369 235.181 124.369 234.061 123.921 233.24C123.548 232.344 122.801 231.896 121.681 231.896C120.188 231.896 118.433 232.493 116.417 233.688C114.401 234.883 112.311 236.451 110.145 238.392C108.055 240.333 106.076 242.424 104.209 244.664C102.417 246.829 100.961 248.957 99.8413 251.048C98.7212 253.064 98.1612 254.819 98.1612 256.312C98.1612 257.432 98.3852 258.141 98.8332 258.44C99.2812 258.739 99.7293 258.888 100.177 258.888C101.895 258.888 103.873 258.104 106.113 256.536C108.428 254.893 110.78 252.84 113.169 250.376C115.559 247.912 117.836 245.411 120.001 242.872C122.167 240.259 124.033 237.907 125.601 235.816C127.244 233.725 128.364 232.307 128.961 231.56C129.783 231.859 130.753 231.971 131.873 231.896C133.068 231.821 134.076 231.747 134.897 231.672C134.748 231.896 133.964 232.829 132.545 234.472C131.201 236.115 129.559 238.093 127.617 240.408C125.751 242.648 123.847 244.963 121.905 247.352C120.039 249.741 118.471 251.832 117.201 253.624C115.932 255.416 115.297 256.611 115.297 257.208C115.297 257.955 115.447 258.44 115.745 258.664C116.119 258.813 116.679 258.888 117.425 258.888C118.321 258.813 119.628 258.403 121.345 257.656C123.063 256.835 125.265 255.267 127.953 252.952C130.641 250.637 133.889 247.203 137.697 242.648C137.697 242.648 137.847 242.76 138.145 242.984C138.519 243.208 138.705 243.32 138.705 243.32C134.225 248.547 130.081 252.653 126.273 255.64C122.465 258.552 118.993 260.008 115.857 260.008C114.215 260.008 113.095 259.747 112.497 259.224C111.975 258.701 111.713 257.955 111.713 256.984C111.713 256.237 112.012 255.341 112.609 254.296C113.281 253.176 114.028 252.093 114.849 251.048C115.671 250.003 116.343 249.181 116.865 248.584C116.865 248.584 116.791 248.547 116.641 248.472C116.492 248.397 116.417 248.36 116.417 248.36C114.7 250.451 112.871 252.392 110.929 254.184C108.988 255.976 107.047 257.395 105.105 258.44C103.239 259.485 101.409 260.008 99.6173 260.008C97.7506 260.008 96.4439 259.56 95.6972 258.664C94.9506 257.693 94.5772 256.237 94.5772 254.296C94.5772 252.429 95.1746 250.189 96.3692 247.576C97.5639 244.888 99.2812 242.275 101.521 239.736C103.761 237.123 106.449 234.957 109.585 233.24C112.796 231.523 116.38 230.664 120.337 230.664C122.279 230.664 123.623 231.037 124.369 231.784C125.116 232.456 125.452 233.277 125.377 234.248C125.303 235.219 125.079 236.189 124.705 237.16C124.332 238.131 123.996 238.877 123.697 239.4ZM161.304 260.008C157.347 260.008 155.368 258.851 155.368 256.536C155.368 255.043 155.853 253.437 156.824 251.72C157.869 250.003 159.139 248.285 160.632 246.568C162.125 244.776 163.619 243.021 165.112 241.304C166.68 239.587 167.949 238.019 168.92 236.6C169.965 235.107 170.488 233.837 170.488 232.792C170.488 232.419 170.301 232.12 169.928 231.896C169.629 231.597 169.181 231.448 168.584 231.448C167.688 231.448 166.419 231.896 164.776 232.792C163.208 233.688 161.192 235.219 158.728 237.384C156.339 239.475 153.501 242.312 150.216 245.896C146.931 249.405 143.16 253.811 138.904 259.112C138.232 258.963 137.224 258.888 135.88 258.888C134.536 258.888 133.379 259.037 132.408 259.336C134.573 256.2 136.701 253.139 138.792 250.152C140.883 247.165 142.787 244.44 144.504 241.976C146.296 239.512 147.715 237.496 148.76 235.928C149.805 234.285 150.328 233.277 150.328 232.904C150.328 232.232 149.992 231.896 149.32 231.896C148.573 231.896 147.64 232.493 146.52 233.688C145.4 234.808 144.168 236.264 142.824 238.056C141.48 239.773 140.099 241.528 138.68 243.32L137.672 242.648C139.165 240.931 140.621 239.139 142.04 237.272C143.459 235.405 144.915 233.8 146.408 232.456C147.901 231.112 149.469 230.44 151.112 230.44C151.933 230.44 152.68 230.664 153.352 231.112C154.099 231.485 154.472 232.12 154.472 233.016C154.472 233.837 154.136 234.845 153.464 236.04C152.867 237.16 152.045 238.467 151 239.96C149.955 241.379 148.76 242.984 147.416 244.776C146.147 246.493 144.803 248.36 143.384 250.376L143.496 251.048C147.453 246.717 150.776 243.208 153.464 240.52C156.227 237.832 158.504 235.779 160.296 234.36C162.163 232.867 163.768 231.859 165.112 231.336C166.531 230.739 167.875 230.44 169.144 230.44C170.861 230.44 172.093 230.813 172.84 231.56C173.587 232.232 173.96 233.165 173.96 234.36C173.96 236.152 173.437 238.056 172.392 240.072C171.347 242.013 170.04 243.955 168.472 245.896C166.979 247.763 165.448 249.517 163.88 251.16C162.387 252.728 161.117 254.072 160.072 255.192C159.027 256.312 158.504 257.059 158.504 257.432C158.504 257.88 158.616 258.216 158.84 258.44C159.139 258.664 159.848 258.776 160.968 258.776C163.731 258.776 166.344 257.917 168.808 256.2C171.347 254.483 173.773 252.392 176.088 249.928C178.403 247.389 180.568 244.888 182.584 242.424L183.48 243.208C181.464 245.597 179.261 248.099 176.872 250.712C174.483 253.325 171.981 255.528 169.368 257.32C166.755 259.112 164.067 260.008 161.304 260.008Z" fill="#344665"/>
<path d="M96.3867 144.922C95.5664 145.396 94.8099 145.924 94.1172 146.508C93.4245 147.073 92.8229 147.684 92.3125 148.34C91.8021 148.978 91.401 149.652 91.1094 150.363C90.8359 151.074 90.6992 151.812 90.6992 152.578C90.6992 153.471 90.8359 154.301 91.1094 155.066C91.401 155.832 91.8112 156.497 92.3398 157.062C92.8685 157.628 93.5065 158.074 94.2539 158.402C95.0195 158.712 95.8763 158.867 96.8242 158.867C98.1185 158.867 99.349 158.585 100.516 158.02C101.682 157.454 102.785 156.753 103.824 155.914C102.348 154.31 100.999 152.551 99.7773 150.637C98.556 148.723 97.4258 146.818 96.3867 144.922ZM99.9141 141.34C100.753 140.902 101.536 140.456 102.266 140C102.995 139.526 103.633 139.016 104.18 138.469C104.727 137.922 105.155 137.32 105.465 136.664C105.775 136.008 105.93 135.279 105.93 134.477C105.93 133.693 105.829 132.991 105.629 132.371C105.428 131.751 105.146 131.232 104.781 130.812C104.435 130.375 104.025 130.047 103.551 129.828C103.095 129.591 102.594 129.473 102.047 129.473C101.464 129.473 100.917 129.637 100.406 129.965C99.8958 130.275 99.4583 130.676 99.0938 131.168C98.7292 131.66 98.4375 132.216 98.2188 132.836C98.0182 133.438 97.918 134.03 97.918 134.613C97.918 135.598 98.0911 136.682 98.4375 137.867C98.8021 139.034 99.2943 140.191 99.9141 141.34ZM114.105 143.555C113.905 144.703 113.659 145.733 113.367 146.645C113.076 147.556 112.729 148.422 112.328 149.242C111.927 150.044 111.462 150.828 110.934 151.594C110.405 152.359 109.812 153.161 109.156 154C110.414 155.258 111.599 156.26 112.711 157.008C113.823 157.737 114.844 158.102 115.773 158.102C116.977 158.102 118.016 157.865 118.891 157.391C119.766 156.917 120.467 156.078 120.996 154.875L121.898 155.203C121.68 156.26 121.333 157.199 120.859 158.02C120.385 158.822 119.793 159.505 119.082 160.07C118.389 160.617 117.596 161.036 116.703 161.328C115.828 161.62 114.871 161.766 113.832 161.766C112.483 161.766 111.107 161.383 109.703 160.617C108.299 159.852 106.914 158.84 105.547 157.582C103.943 158.822 102.202 159.833 100.324 160.617C98.4648 161.383 96.4414 161.766 94.2539 161.766C92.7227 161.766 91.4193 161.592 90.3438 161.246C89.2682 160.9 88.3841 160.417 87.6914 159.797C87.0169 159.177 86.5247 158.439 86.2148 157.582C85.9049 156.725 85.75 155.777 85.75 154.738C85.75 153.243 86.0234 151.922 86.5703 150.773C87.1354 149.625 87.8737 148.604 88.7852 147.711C89.6966 146.799 90.7357 145.988 91.9023 145.277C93.0872 144.566 94.2995 143.901 95.5391 143.281C94.8646 141.859 94.3268 140.547 93.9258 139.344C93.543 138.122 93.3516 137.102 93.3516 136.281C93.3516 135.224 93.5247 134.194 93.8711 133.191C94.2357 132.171 94.7643 131.268 95.457 130.484C96.168 129.701 97.043 129.072 98.082 128.598C99.1393 128.124 100.37 127.887 101.773 127.887C102.812 127.887 103.788 128.042 104.699 128.352C105.629 128.661 106.431 129.108 107.105 129.691C107.798 130.257 108.336 130.958 108.719 131.797C109.12 132.617 109.32 133.556 109.32 134.613C109.32 135.689 109.065 136.628 108.555 137.43C108.062 138.214 107.406 138.924 106.586 139.562C105.766 140.201 104.836 140.784 103.797 141.312C102.776 141.823 101.737 142.324 100.68 142.816C101.536 144.421 102.557 146.025 103.742 147.629C104.945 149.233 106.24 150.783 107.625 152.277C109.266 150.454 110.478 148.777 111.262 147.246C112.064 145.697 112.592 144.348 112.848 143.199L114.105 143.555Z" fill="#344665"/>
<path d="M9.008 78.128C6.17067 78.128 4.11733 77.68 2.848 76.784C1.57867 75.888 0.832 74.9173 0.608 73.872C0.309333 72.8267 0.16 72.0427 0.16 71.52C0.234666 70.5493 0.682666 69.7653 1.504 69.168C2.25067 68.5707 3.10933 68.272 4.08 68.272C4.67733 68.272 5.2 68.4213 5.648 68.72C6.096 68.944 6.32 69.4667 6.32 70.288C6.32 71.0347 6.05867 71.5573 5.536 71.856C5.01333 72.1547 4.45333 72.304 3.856 72.304C3.33333 72.304 2.88533 72.2293 2.512 72.08C2.064 71.9307 1.84 71.856 1.84 71.856C1.84 73.872 2.58667 75.216 4.08 75.888C5.57333 76.56 7.25333 76.896 9.12 76.896C12.032 76.896 15.0187 76.0747 18.08 74.432C21.216 72.7893 24.4267 70.624 27.712 67.936C30.9973 65.1733 34.3573 62.112 37.792 58.752C41.3013 55.3173 44.8853 51.8827 48.544 48.448C52.5013 44.7147 56.4213 41.0187 60.304 37.36C64.2613 33.6267 68.0693 30.2667 71.728 27.28C75.3867 24.2933 78.784 21.904 81.92 20.112C85.056 18.32 87.856 17.424 90.32 17.424C91.1413 17.424 91.4773 17.5733 91.328 17.872C91.2533 18.1707 90.656 18.3947 89.536 18.544C86.9227 18.992 84.048 20.1867 80.912 22.128C77.8507 23.9947 74.6027 26.4213 71.168 29.408C67.7333 32.32 64.1867 35.5307 60.528 39.04C56.944 42.4747 53.2853 45.9467 49.552 49.456C46.1173 52.7413 42.6453 56.064 39.136 59.424C35.7013 62.784 32.2667 65.8827 28.832 68.72C25.472 71.5573 22.112 73.8347 18.752 75.552C15.4667 77.2693 12.2187 78.128 9.008 78.128ZM43.504 73.088C43.056 73.2373 42.5333 73.3493 41.936 73.424C41.4133 73.424 41.264 73.2373 41.488 72.864C41.712 72.4907 42.1227 71.856 42.72 70.96C43.392 69.9893 43.9893 68.832 44.512 67.488C45.1093 66.144 45.408 64.7627 45.408 63.344C45.408 61.4773 45.072 59.3493 44.4 56.96C43.8027 54.496 42.7947 52.1067 41.376 49.792C40.032 47.4773 38.2027 45.5733 35.888 44.08C33.648 42.512 30.8853 41.728 27.6 41.728C25.4347 41.728 23.568 42.2507 22 43.296C20.5067 44.3413 19.3493 45.6107 18.528 47.104C17.7813 48.5227 17.408 49.904 17.408 51.248C17.408 54.16 18.2667 56.9227 19.984 59.536C21.776 62.1493 24.464 64.2773 28.048 65.92C31.632 67.488 36.0747 68.272 41.376 68.272C47.2 68.272 52.4267 67.264 57.056 65.248C61.6853 63.232 65.568 60.6187 68.704 57.408C71.84 54.1973 74.0427 50.8373 75.312 47.328C75.6853 46.208 75.984 45.8347 76.208 46.208C76.5067 46.5067 76.656 46.8053 76.656 47.104C76.656 49.6427 75.7973 52.2187 74.08 54.832C72.3627 57.4453 69.936 59.872 66.8 62.112C63.664 64.2773 60.0427 66.032 55.936 67.376C51.8293 68.72 47.3493 69.392 42.496 69.392C37.4933 69.392 32.864 68.6827 28.608 67.264C24.4267 65.8453 21.0293 63.7547 18.416 60.992C15.8773 58.2293 14.608 54.9067 14.608 51.024C14.608 48.4107 15.6907 46.0213 17.856 43.856C20.096 41.616 23.344 40.496 27.6 40.496C31.184 40.496 34.1707 41.3173 36.56 42.96C39.024 44.6027 41.0027 46.6187 42.496 49.008C43.9893 51.3973 45.072 53.7867 45.744 56.176C46.416 58.5653 46.752 60.544 46.752 62.112C46.752 63.8293 46.528 65.5467 46.08 67.264C45.632 68.9067 45.1467 70.288 44.624 71.408C44.176 72.4533 43.8027 73.0133 43.504 73.088ZM36.896 77.904C36.9707 77.8293 37.7173 76.9333 39.136 75.216C40.5547 73.4987 42.4213 71.2213 44.736 68.384C47.0507 65.5467 49.664 62.3733 52.576 58.864C55.488 55.28 58.512 51.6213 61.648 47.888C64.784 44.1547 67.8453 40.5333 70.832 37.024C73.8933 33.44 76.6933 30.2293 79.232 27.392C81.8453 24.48 84.0107 22.1653 85.728 20.448C87.52 18.7307 88.6773 17.8347 89.2 17.76C89.5733 17.6107 89.9093 17.6107 90.208 17.76C90.5067 17.9093 90.432 18.1707 89.984 18.544C89.6853 18.768 88.64 20 86.848 22.24C85.056 24.4053 82.7787 27.28 80.016 30.864C77.328 34.3733 74.3787 38.256 71.168 42.512C68.032 46.6933 64.896 50.8747 61.76 55.056C58.624 59.1627 55.7493 62.9707 53.136 66.48C50.5973 69.9147 48.5067 72.6773 46.864 74.768C45.296 76.8587 44.4747 77.904 44.4 77.904C44.1013 77.8293 43.5787 77.7547 42.832 77.68C42.16 77.6053 41.488 77.568 40.816 77.568C40.144 77.568 39.36 77.6053 38.464 77.68C37.6427 77.8293 37.12 77.904 36.896 77.904ZM86.7938 47.552C87.8391 47.8507 88.9218 48 90.0418 48C91.1618 47.9253 92.3191 47.8507 93.5138 47.776C91.4978 49.7173 89.2204 52.032 86.6818 54.72C84.2178 57.3333 81.8284 59.984 79.5138 62.672C77.2738 65.2853 75.4071 67.6373 73.9137 69.728C72.4204 71.744 71.6737 73.1253 71.6737 73.872C71.6737 74.3947 71.8604 74.88 72.2337 75.328C72.6071 75.7013 73.2417 75.888 74.1377 75.888C76.7511 75.888 79.4391 75.104 82.2018 73.536C85.0391 71.968 87.7644 69.9893 90.3777 67.6C93.0658 65.136 95.5671 62.5973 97.8818 59.984C100.196 57.296 102.212 54.8693 103.93 52.704C105.722 50.464 107.028 48.8213 107.85 47.776C108.447 47.9253 109.418 48 110.762 48C112.18 48 113.151 47.9627 113.674 47.888C105.983 57.1467 99.2258 65.6587 93.4018 73.424C87.6524 81.1147 82.4631 87.7227 77.8338 93.248C73.2044 98.848 68.7991 103.179 64.6177 106.24C60.3617 109.301 55.9191 110.832 51.2897 110.832C48.4524 110.832 47.0337 109.712 47.0337 107.472C47.0337 105.829 48.0791 104.112 50.1697 102.32C52.1857 100.528 54.9111 98.6613 58.3457 96.72C61.7804 94.8533 65.5884 92.9867 69.7697 91.12C73.9511 89.2533 78.2071 87.4613 82.5378 85.744C88.2124 83.504 92.8791 81.04 96.5378 78.352C100.271 75.7387 103.519 72.864 106.282 69.728C109.119 66.592 111.994 63.1573 114.906 59.424L115.802 59.984C112.815 63.792 109.866 67.3013 106.954 70.512C104.042 73.648 100.719 76.56 96.9858 79.248C93.2524 81.936 88.5484 84.4373 82.8738 86.752C78.6178 88.4693 74.4737 90.224 70.4417 92.016C66.3351 93.8827 62.6391 95.6747 59.3537 97.392C55.9937 99.184 53.3431 100.939 51.4017 102.656C49.3857 104.373 48.3777 105.979 48.3777 107.472C48.3777 108.368 48.6764 108.928 49.2737 109.152C49.8711 109.451 50.6551 109.6 51.6257 109.6C53.9404 109.6 56.4417 108.704 59.1298 106.912C61.7431 105.12 64.5057 102.693 67.4177 99.632C70.3297 96.5707 73.2791 93.0987 76.2658 89.216C79.3271 85.408 82.4258 81.4507 85.5618 77.344C88.6978 73.2373 91.8711 69.2427 95.0818 65.36L94.6338 65.136C94.4844 65.36 93.9618 65.92 93.0658 66.816C92.1698 67.712 91.0124 68.72 89.5938 69.84C88.1751 70.96 86.5698 72.08 84.7778 73.2C82.9858 74.32 81.0818 75.2533 79.0658 76C77.1244 76.672 75.1457 77.008 73.1297 77.008C71.7111 77.008 70.6284 76.672 69.8817 76C69.0604 75.4027 68.6497 74.544 68.6497 73.424C68.6497 71.632 69.2471 69.616 70.4417 67.376C71.6364 65.0613 73.2044 62.7093 75.1457 60.32C77.0124 57.9307 78.9911 55.616 81.0818 53.376C83.1724 51.136 85.0764 49.1947 86.7938 47.552ZM150.699 8.128C151.521 8.27733 152.529 8.352 153.723 8.352C154.993 8.352 156.001 8.27733 156.747 8.128L117.771 62.448C116.577 64.24 115.419 65.92 114.299 67.488C113.179 69.056 112.283 70.4373 111.611 71.632C110.865 72.752 110.491 73.648 110.491 74.32C110.491 74.8427 110.715 75.216 111.163 75.44C111.537 75.664 112.097 75.776 112.843 75.776C114.561 75.776 116.465 75.1787 118.555 73.984C120.646 72.7147 122.699 71.1467 124.715 69.28C126.806 67.4133 128.71 65.584 130.427 63.792C132.219 62 133.638 60.544 134.683 59.424L135.467 60.096C134.497 61.1413 133.153 62.5973 131.435 64.464C129.718 66.3307 127.739 68.2347 125.499 70.176C123.334 72.0427 121.057 73.648 118.667 74.992C116.353 76.336 114.075 77.008 111.835 77.008C110.641 77.008 109.633 76.672 108.811 76C107.915 75.328 107.467 74.3573 107.467 73.088C107.467 72.2667 107.766 71.2213 108.363 69.952C108.961 68.6827 109.707 67.376 110.603 66.032C111.425 64.6133 112.246 63.344 113.067 62.224C113.814 61.0293 114.411 60.1333 114.859 59.536L150.699 8.128ZM132.307 77.008C131.262 77.008 130.104 76.7093 128.835 76.112C127.491 75.5893 126.819 74.6933 126.819 73.424C126.819 71.856 127.528 69.8773 128.947 67.488C130.366 65.0987 132.12 62.6347 134.211 60.096C136.227 57.5573 138.206 55.168 140.147 52.928C142.088 50.688 143.544 48.9333 144.515 47.664C145.336 47.7387 146.307 47.776 147.427 47.776C148.622 47.776 149.667 47.7387 150.563 47.664C149.518 48.9333 148.136 50.5387 146.419 52.48C144.776 54.4213 143.022 56.512 141.155 58.752C139.363 60.9173 137.608 63.0453 135.891 65.136C134.248 67.2267 132.904 69.0933 131.859 70.736C130.814 72.3787 130.291 73.5733 130.291 74.32C130.291 74.8427 130.515 75.216 130.963 75.44C131.411 75.664 132.158 75.776 133.203 75.776C134.995 75.776 136.974 75.104 139.139 73.76C141.379 72.3413 143.544 70.6613 145.635 68.72C147.726 66.7787 149.592 64.9493 151.235 63.232C152.878 61.44 154.035 60.1333 154.707 59.312L155.603 60.096C154.931 60.8427 153.774 62.1493 152.131 64.016C150.563 65.808 148.659 67.712 146.419 69.728C144.254 71.744 141.939 73.4613 139.475 74.88C137.086 76.2987 134.696 77.008 132.307 77.008ZM154.707 39.152C153.811 39.152 153.139 38.8907 152.691 38.368C152.243 37.7707 152.019 37.0987 152.019 36.352C152.019 35.5307 152.467 34.672 153.363 33.776C154.259 32.88 155.192 32.432 156.163 32.432C157.208 32.432 157.955 32.7307 158.403 33.328C158.851 33.8507 159.075 34.3733 159.075 34.896C159.075 36.016 158.627 37.024 157.731 37.92C156.835 38.7413 155.827 39.152 154.707 39.152ZM178.195 77.008C174.237 77.008 172.259 75.8507 172.259 73.536C172.259 72.0427 172.744 70.4373 173.715 68.72C174.76 67.0027 176.029 65.2853 177.523 63.568C179.016 61.776 180.509 60.0213 182.003 58.304C183.571 56.5867 184.84 55.0187 185.811 53.6C186.856 52.1067 187.379 50.8373 187.379 49.792C187.379 49.4187 187.192 49.12 186.819 48.896C186.52 48.5973 186.072 48.448 185.475 48.448C184.579 48.448 183.309 48.896 181.667 49.792C180.099 50.688 178.083 52.2187 175.619 54.384C173.229 56.4747 170.392 59.312 167.107 62.896C163.821 66.4053 160.051 70.8107 155.795 76.112C155.123 75.9627 154.114 75.888 152.77 75.888C151.426 75.888 150.269 76.0373 149.298 76.336C151.464 73.2 153.592 70.1387 155.683 67.152C157.773 64.1653 159.677 61.44 161.395 58.976C163.187 56.512 164.605 54.496 165.651 52.928C166.696 51.2853 167.219 50.2773 167.219 49.904C167.219 49.232 166.883 48.896 166.211 48.896C165.464 48.896 164.531 49.4933 163.411 50.688C162.291 51.808 161.059 53.264 159.715 55.056C158.371 56.7733 156.989 58.528 155.571 60.32L154.562 59.648C156.056 57.9307 157.512 56.1387 158.931 54.272C160.349 52.4053 161.805 50.8 163.299 49.456C164.792 48.112 166.36 47.44 168.003 47.44C168.824 47.44 169.571 47.664 170.243 48.112C170.989 48.4853 171.363 49.12 171.363 50.016C171.363 50.8373 171.027 51.8453 170.355 53.04C169.757 54.16 168.936 55.4667 167.891 56.96C166.845 58.3787 165.651 59.984 164.307 61.776C163.037 63.4933 161.693 65.36 160.275 67.376L160.387 68.048C164.344 63.7173 167.667 60.208 170.355 57.52C173.117 54.832 175.395 52.7787 177.187 51.36C179.053 49.8667 180.659 48.8587 182.003 48.336C183.421 47.7387 184.765 47.44 186.035 47.44C187.752 47.44 188.984 47.8133 189.731 48.56C190.477 49.232 190.851 50.1653 190.851 51.36C190.851 53.152 190.328 55.056 189.283 57.072C188.237 59.0133 186.931 60.9547 185.363 62.896C183.869 64.7627 182.339 66.5173 180.771 68.16C179.277 69.728 178.008 71.072 176.963 72.192C175.917 73.312 175.395 74.0587 175.395 74.432C175.395 74.88 175.507 75.216 175.731 75.44C176.029 75.664 176.739 75.776 177.859 75.776C180.621 75.776 183.235 74.9173 185.699 73.2C188.237 71.4827 190.664 69.392 192.979 66.928C195.293 64.3893 197.459 61.888 199.475 59.424L200.371 60.208C198.355 62.5973 196.152 65.0987 193.763 67.712C191.373 70.3253 188.872 72.528 186.259 74.32C183.645 76.112 180.957 77.008 178.195 77.008Z" fill="#344665"/>
</svg>
