<svg width="2280" height="532" viewBox="0 0 2280 532" fill="none" xmlns="http://www.w3.org/2000/svg">
<path fill-rule="evenodd" clip-rule="evenodd" d="M0.372747 0.664551H37.1161V376.113C37.1161 376.113 37.1161 403.207 61.3177 403.207H258.653V443.932H44.0419C44.0419 443.932 0.294922 443.841 0.294922 395.412L0.372747 0.664551Z" fill="black"/>
<path fill-rule="evenodd" clip-rule="evenodd" d="M51.0845 0.664551H87.7241V322.704C87.7241 322.704 85.1561 347.736 108.982 347.671C226.864 347.476 258.471 347.671 258.471 347.671V387.877H72.5883C72.5883 387.877 50.8899 386.23 51.0974 364.013C51.2142 348.215 51.0845 0.664551 51.0845 0.664551Z" fill="black"/>
<path fill-rule="evenodd" clip-rule="evenodd" d="M101.524 0.664551H138.345L138.397 273.068C138.397 273.068 136.27 291.602 153.779 291.602H258.666L258.484 332.094H117.204C117.204 332.094 101.524 328.968 101.524 310.149V0.664551Z" fill="black"/>
<path fill-rule="evenodd" clip-rule="evenodd" d="M152.106 0.664551H188.94V220.515C188.94 220.515 186.618 236.118 202.727 236.118H258.653V276.324H173.519C158.306 276.324 152.119 271.746 152.119 256.299L152.106 0.664551Z" fill="black"/>
<path fill-rule="evenodd" clip-rule="evenodd" d="M460.618 443.452L423.862 443.426L424.043 67.9776C424.043 67.9776 424.056 40.8967 399.867 40.8838L202.52 40.7929L202.532 0.0678711L417.143 0.171671C417.143 0.171671 460.89 0.288357 460.877 48.7045L460.618 443.452Z" fill="black"/>
<path fill-rule="evenodd" clip-rule="evenodd" d="M409.88 443.426L373.24 443.413L373.396 121.374C373.396 121.374 375.977 96.3296 352.152 96.3945C234.269 96.5371 202.662 96.3295 202.662 96.3295L202.675 56.1233L388.571 56.2141C388.571 56.2141 410.269 57.8612 410.049 80.0784C409.919 95.8886 409.88 443.426 409.88 443.426Z" fill="black"/>
<path fill-rule="evenodd" clip-rule="evenodd" d="M359.467 443.4L322.632 443.387L322.71 170.971C322.71 170.971 324.837 152.45 307.341 152.437L202.455 152.385L202.649 111.893L343.916 111.958C343.916 111.958 359.609 115.097 359.596 133.903L359.467 443.4Z" fill="black"/>
<path fill-rule="evenodd" clip-rule="evenodd" d="M308.859 443.375L272.024 443.362L272.128 223.511C272.128 223.511 274.463 207.909 258.354 207.896C239.712 207.891 221.071 207.883 202.429 207.87L202.442 167.676L287.588 167.715C302.802 167.715 308.988 172.307 308.975 187.741L308.859 443.375Z" fill="black"/>
<path fill-rule="evenodd" clip-rule="evenodd" d="M833.589 92.1015H871.189V134.357H833.589V92.1015ZM833.589 184.278H871.189V443.868H833.589V184.278ZM2165.61 91.6216H2203.22V443.868H2165.61V91.6216ZM1081.05 184.278L1005.24 393.22L929.462 184.278H886.545L980.718 443.868H1029.78L1123.96 184.278H1081.05ZM727.484 402.624C714.812 402.624 705.215 391.392 705.215 377.514L705.241 92.1015H667.641L667.602 384.284C667.602 417.059 691.324 443.634 721.31 443.634H819.932V402.624H727.484ZM1440.72 226.066C1428.02 226.066 1418.42 237.298 1418.42 251.163L1418.47 444.892H1380.86V244.405C1380.86 211.618 1404.54 185.043 1434.54 185.043H1474.04V226.053L1440.72 226.066ZM1360.98 316.997V309.008C1360.98 234.159 1305.27 173.253 1236.83 173.253C1168.36 173.253 1112.66 234.146 1112.66 309.008C1112.66 383.869 1168.36 444.762 1236.83 444.762C1294.56 444.762 1343.88 402.286 1357.44 341.186H1321.03C1308.49 380.355 1274.81 406.631 1236.83 406.631C1190.67 406.631 1152.3 368.63 1147.78 317.01L1360.98 316.997ZM1151.89 278.801C1164.41 237.7 1198.93 211.384 1236.83 211.384C1274.7 211.384 1309.13 237.7 1321.67 278.801H1151.89ZM2021.56 171.801C1976.42 171.801 1936.88 197.87 1914.76 236.987C1892.65 197.857 1853.1 171.801 1807.94 171.801C1762.81 171.801 1723.26 197.87 1701.15 236.987C1679.04 197.87 1639.47 171.801 1594.33 171.801C1525.02 171.801 1468.86 233.226 1468.86 308.995V531.932H1506.78V407.228C1529.38 431.313 1560.26 446.189 1594.33 446.189C1639.47 446.189 1679.04 420.12 1701.15 381.003C1723.26 420.133 1762.81 446.189 1807.94 446.189C1853.1 446.189 1892.65 420.12 1914.76 381.016C1936.88 420.133 1976.42 446.189 2021.56 446.189C2090.87 446.189 2147.05 384.764 2147.05 308.995C2147.05 233.226 2090.85 171.801 2021.56 171.801ZM1594.31 405.153C1545.82 405.153 1506.36 362.015 1506.36 308.995C1506.36 255.974 1545.82 212.837 1594.31 212.837C1642.81 212.837 1682.28 255.974 1682.28 308.995C1682.28 362.015 1642.81 405.153 1594.31 405.153ZM1807.93 405.153C1759.45 405.153 1719.98 362.015 1719.98 308.995C1719.98 255.974 1759.45 212.837 1807.93 212.837C1856.44 212.837 1895.88 255.974 1895.88 308.995C1895.88 362.015 1856.44 405.153 1807.93 405.153ZM2021.56 405.153C1973.07 405.153 1933.61 362.015 1933.61 308.995C1933.61 255.974 1973.07 212.837 2021.56 212.837C2070.06 212.837 2109.5 255.974 2109.5 308.995C2109.5 362.015 2070.06 405.153 2021.56 405.153ZM2249.64 153.371C2233.03 153.371 2219.66 138.676 2219.66 120.492C2219.66 102.309 2233.03 87.7178 2249.64 87.7178C2266.26 87.7178 2279.71 102.322 2279.71 120.492C2279.71 138.663 2266.26 153.371 2249.64 153.371ZM2249.64 93.1391C2235.79 93.1391 2224.64 105.357 2224.64 120.492C2224.64 135.628 2235.78 147.923 2249.64 147.923C2263.51 147.923 2274.75 135.628 2274.75 120.492C2274.75 105.357 2263.49 93.1391 2249.64 93.1391ZM2236.52 103.385H2250.78C2258.76 103.385 2261.44 108.833 2261.44 112.659C2261.44 118.365 2257.72 122.464 2252.25 122.814V122.995C2255.01 124.059 2257.06 127.094 2259.74 131.815L2263.67 138.676H2257.32L2254.45 133.151C2250.38 125.226 2248.82 123.696 2244.83 123.696H2241.74V138.663H2236.53V103.385H2236.52ZM2249.23 118.793C2253.23 118.793 2255.92 117.107 2255.92 113.45C2255.92 110.246 2253.56 108.197 2250.15 108.197H2241.74V118.793H2249.23Z" fill="black"/>
</svg>
