<svg width="63" height="62" viewBox="0 0 63 62" fill="none" xmlns="http://www.w3.org/2000/svg">
<path d="M18.62 33.075C18.424 31.703 20.6617 26.2967 21.805 23.765L21.56 22.54C20.09 25.1534 17.885 30.723 17.885 33.075C17.885 36.015 22.295 36.75 24.255 36.75C25.823 36.75 28.175 38.71 29.155 39.69L28.42 37.485C28.0933 36.995 26.754 36.015 24.01 36.015C20.58 36.015 18.865 34.79 18.62 33.075Z" fill="#344665"/>
<path d="M36.7502 47.04V47.53H28.6652V47.285C29.4002 47.285 31.3602 47.04 31.1152 44.59C30.9966 43.4037 24.6635 29.7266 21.3152 23.03L22.2952 20.335H23.0302C26.2969 28.175 33.0262 44.198 33.8102 45.57C34.5942 46.942 36.0152 47.04 36.7502 47.04Z" fill="#344665"/>
<path d="M9.80001 57.8202C9.31 55.3702 11.1067 51.2052 12.25 48.7552L11.27 47.2852C9.96333 50.3885 7.007 56.9872 5.635 58.5552C4.263 60.1232 1.30667 60.6785 0 60.7602V61.4952H15.435V60.5152C13.965 60.5152 10.3806 60.723 9.80001 57.8202Z" fill="#344665"/>
<path d="M62.9653 60.27V61.495H44.3453V60.515C45.8153 60.515 48.8043 60.025 49.9803 57.085C51.1563 54.145 36.2603 21.2333 28.6653 5.145L30.6253 0H31.8503C39.3636 17.885 54.7823 54.341 56.3503 57.085C57.9183 59.829 61.2503 60.27 62.9653 60.27Z" fill="#344665"/>
</svg>
